HIERARCHY
ROOT root
{
	OFFSET 0.000000 0.000000 0.000000
	CHANNELS 6 Xposition Yposition Zposition Zrotation Yrotation Xrotation
	JOINT lhip
	{
		OFFSET 0.058581 -0.082280 -0.017664
		CHANNELS 3 Zrotation Yrotation Xrotation
		JOINT lknee
		{
			OFFSET 0.043451 -0.386469 0.008037
			CHANNELS 3 Zrotation Yrotation Xrotation
			JOINT lankle
			{
				OFFSET -0.014790 -0.426874 -0.037428
				CHANNELS 3 Zrotation Yrotation Xrotation
				JOINT ltoe
				{
					OFFSET 0.041054 -0.060286 0.122042
					CHANNELS 3 Zrotation Yrotation Xrotation
					End Site
					{
						OFFSET 0.000000 0.000000 0.000000
					}
				}
			}
		}
	}
	JOINT rhip
	{
		OFFSET -0.060310 -0.090513 -0.013543
		CHANNELS 3 Zrotation Yrotation Xrotation
		JOINT rknee
		{
			OFFSET -0.043257 -0.383688 -0.004843
			CHANNELS 3 Zrotation Yrotation Xrotation
			JOINT rankle
			{
				OFFSET 0.019056 -0.420046 -0.034562
				CHANNELS 3 Zrotation Yrotation Xrotation
				JOINT rtoe
				{
					OFFSET -0.034840 -0.062106 0.130323
					CHANNELS 3 Zrotation Yrotation Xrotation
					End Site
					{
						OFFSET 0.000000 0.000000 0.000000
					}
				}
			}
		}
	}
	JOINT lowerback
	{
		OFFSET 0.004439 0.124404 -0.038385
		CHANNELS 3 Zrotation Yrotation Xrotation
		JOINT upperback
		{
			OFFSET 0.004488 0.137956 0.026820
			CHANNELS 3 Zrotation Yrotation Xrotation
			JOINT chest
			{
				OFFSET -0.002265 0.056032 0.002855
				CHANNELS 3 Zrotation Yrotation Xrotation
				JOINT lowerneck
				{
					OFFSET -0.013390 0.211636 -0.033468
					CHANNELS 3 Zrotation Yrotation Xrotation
					JOINT upperneck
					{
						OFFSET 0.010113 0.088937 0.050410
						CHANNELS 3 Zrotation Yrotation Xrotation
						End Site
						{
							OFFSET 0.000000 0.000000 0.000000
						}
					}
				}
				JOINT lclavicle
				{
					OFFSET 0.071702 0.114000 -0.018898
					CHANNELS 3 Zrotation Yrotation Xrotation
					JOINT lshoulder
					{
						OFFSET 0.122921 0.045205 -0.019046
						CHANNELS 3 Zrotation Yrotation Xrotation
						JOINT lelbow
						{
							OFFSET 0.255332 -0.015649 -0.022946
							CHANNELS 3 Zrotation Yrotation Xrotation
							JOINT lwrist
							{
								OFFSET 0.265709 0.012698 -0.007375
								CHANNELS 3 Zrotation Yrotation Xrotation
								End Site
								{
									OFFSET 0.000000 0.000000 0.000000
								}
							}
						}
					}
				}
				JOINT rclavicle
				{
					OFFSET -0.082954 0.112472 -0.023707
					CHANNELS 3 Zrotation Yrotation Xrotation
					JOINT rshoulder
					{
						OFFSET -0.113228 0.046853 -0.008472
						CHANNELS 3 Zrotation Yrotation Xrotation
						JOINT relbow
						{
							OFFSET -0.260127 -0.014369 -0.031269
							CHANNELS 3 Zrotation Yrotation Xrotation
							JOINT rwrist
							{
								OFFSET -0.269108 0.006794 -0.006027
								CHANNELS 3 Zrotation Yrotation Xrotation
								End Site
								{
									OFFSET 0.000000 0.000000 0.000000
								}
							}
						}
					}
				}
			}
		}
	}
}
MOTION
Frames: 7
Frame Time: 0.033333
0.140862 0.753504 0.961401 78.284414 -2.096375 90.262845 6.995623 -3.259422 -35.562093 -5.260457 13.826180 27.035750 9.863925 14.084647 -0.599216 0.000000 -0.000000 0.000000 -10.420605 -2.302819 19.961781 4.390403 7.155840 28.591318 8.991324 1.524969 0.567145 0.000000 -0.000000 0.000000 -6.770629 15.119576 -2.159386 3.856049 -1.136587 12.945795 0.284297 3.277330 -6.007145 8.163991 -8.495408 -2.937551 1.123663 -10.160868 -7.194603 -16.449047 14.128915 4.750616 -57.857814 23.930448 12.463692 8.101198 -27.673481 20.835604 -13.833360 -12.861468 0.287694 25.338837 5.726542 2.677365 53.324629 14.914442 13.729636 -11.792660 39.524239 -13.191490 1.193270 15.333127 -12.437175 
0.195998 0.761336 0.967966 80.053646 -3.837840 90.329151 3.780304 -4.975381 -32.856984 -5.875725 13.578102 28.647833 11.783734 14.947749 -5.289396 0.000000 -0.000000 0.000000 -11.329320 -2.019414 13.726134 2.351445 2.165129 42.888944 6.190363 -4.275163 7.087795 0.000000 -0.000000 0.000000 -8.765956 13.413257 -1.562234 3.830638 -0.720514 12.109730 0.171483 2.935578 -5.148398 8.829248 -8.190319 -3.560513 1.099298 -10.196415 -7.824956 -16.608133 13.165698 3.678645 -57.896110 21.757474 13.169293 7.677312 -28.063178 20.169857 -12.552672 -12.535127 1.148201 26.130819 5.087478 1.954687 54.251502 13.069737 14.027366 -12.143156 39.370183 -13.258431 1.406352 14.596044 -12.613364 
0.248678 0.768398 0.979229 81.743859 -4.801952 89.646411 0.589171 -5.547583 -27.610006 -6.762538 11.460229 26.897180 12.063032 16.310562 -7.883370 0.000000 -0.000000 0.000000 -11.191960 -2.205761 7.134860 -0.337029 -0.797049 54.907875 1.575828 -10.288332 5.099523 0.000000 -0.000000 0.000000 -8.895670 11.245764 0.613595 3.344537 -0.725130 10.420687 -0.108617 2.759991 -3.878342 7.458367 -9.091976 -3.203592 2.467241 -8.230864 -8.583262 -17.817506 10.966482 3.564632 -59.001827 18.473834 12.749089 8.575956 -29.334815 14.849637 -12.944662 -11.985930 -2.615445 26.407481 4.261705 1.144805 56.155410 11.082745 14.035757 -12.672056 39.223623 -12.060939 2.090635 13.663785 -13.849062 
0.300899 0.773998 0.995158 83.671623 -4.450174 88.942641 -1.726066 -5.121865 -20.810104 -6.882274 8.253396 22.595039 11.021080 16.646135 -9.434672 0.000000 -0.000000 0.000000 -9.371386 -2.323922 1.174656 -1.246941 -1.972868 61.362542 0.180058 -11.732886 -1.135440 0.000000 -0.000000 0.000000 -7.439562 8.722043 2.216710 3.006681 -1.022817 9.658142 -0.225324 2.169499 -3.450794 5.420518 -9.364453 -1.834558 3.567707 -6.775638 -9.442791 -19.606933 8.713810 3.218655 -60.519607 14.493773 13.204541 10.006223 -28.834118 11.647740 -9.626685 -12.019288 -1.891875 25.919722 3.792518 0.682722 57.724620 8.207143 13.859124 -12.354485 38.693203 -11.183032 0.438137 14.207551 -14.872360 
0.350558 0.779263 1.012915 86.758082 -3.553783 88.294828 -3.431705 -5.311361 -14.219002 -6.453097 2.916149 18.185673 9.899967 18.296681 -9.969577 0.000000 -0.000000 0.000000 -7.222319 -1.650614 -4.042680 -0.503885 -4.717394 62.147432 -0.310590 -12.435005 -3.982443 0.000000 -0.000000 0.000000 -5.744576 5.633976 3.841174 2.939302 -1.741111 8.541712 -0.092392 1.273457 -2.913419 3.231888 -9.967361 -0.994717 4.667406 -5.156600 -8.900986 -21.044073 5.510072 3.113206 -62.340500 10.113541 14.029850 11.288192 -28.630554 8.871016 -7.671634 -11.950593 -1.972610 24.561440 3.406899 0.402412 59.115251 4.253911 12.753655 -11.474365 39.331939 -9.749436 0.454718 14.228756 -15.881103 
0.399987 0.783100 1.028361 89.608615 -2.594787 88.002329 -4.807761 -4.627796 -7.586388 -4.557579 -1.321223 13.091242 8.862722 18.548826 -10.730923 0.000000 -0.000000 0.000000 -5.200533 -1.653297 -9.221951 0.791728 -5.957723 59.360891 0.228828 -12.844611 -9.623839 0.000000 -0.000000 0.000000 -4.166206 2.835404 4.228309 2.907756 -2.408063 7.977411 0.015615 0.172622 -2.052378 1.394953 -9.762149 -0.133512 5.758431 -3.711644 -8.398307 -21.666400 2.576621 2.297960 -63.080911 5.577126 16.258817 10.879135 -29.309064 8.211578 -5.106665 -12.556934 -0.851594 23.166627 2.528103 -0.375243 60.086388 0.196111 12.631619 -10.681885 39.588490 -8.489047 -0.504817 14.447089 -16.379976 
0.448401 0.786010 1.040116 92.459208 -1.455620 87.803430 -4.732179 -3.322494 -1.351781 -3.505024 -5.531396 8.288803 6.972255 18.510494 -11.745965 0.000000 -0.000000 0.000000 -3.894347 -1.668774 -13.661123 1.471741 -8.210597 52.954752 0.353058 -13.660115 -12.212430 0.000000 -0.000000 0.000000 -2.686126 0.032904 5.043053 3.195763 -3.033051 6.996676 0.148019 -0.733821 -1.944545 -0.309896 -9.579892 0.164251 5.844347 -3.100620 -6.666006 -22.161080 0.680784 2.344677 -62.813264 -0.220099 17.877751 9.303969 -30.717003 7.357233 -4.619177 -13.093976 0.467245 21.812296 0.936304 -0.745264 60.325212 -3.701575 11.584806 -9.341921 39.546111 -5.793748 0.780812 14.617547 -16.141582 
